<?xml version="1.0" standalone="no"?>
<!DOCTYPE svg PUBLIC "-//W3C//DTD SVG 20010904//EN"
 "http://www.w3.org/TR/2001/REC-SVG-20010904/DTD/svg10.dtd">
<svg version="1.0" xmlns="http://www.w3.org/2000/svg"
 width="509.000000pt" height="509.000000pt" viewBox="0 0 509.000000 509.000000"
 preserveAspectRatio="xMidYMid meet">
<metadata>
Created by potrace 1.14, written by Peter Selinger 2001-2017
</metadata>
<g transform="translate(0.000000,509.000000) scale(0.100000,-0.100000)"
fill="#000000" stroke="none">
<path d="M1431 4123 c-6 -10 -11 -13 -11 -8 0 11 -210 12 -228 1 -7 -4 -12 -4
-12 1 0 4 -33 7 -72 6 -40 -1 -88 -2 -105 -2 -32 -1 -49 -21 -18 -21 8 0 15
-4 15 -9 0 -5 20 -30 45 -57 41 -43 49 -56 47 -75 -1 -4 3 -21 8 -38 5 -19 5
-29 -1 -26 -5 4 -9 1 -9 -4 0 -6 5 -11 11 -11 6 0 9 -9 6 -20 -3 -10 0 -21 7
-24 8 -3 8 -5 -1 -5 -8 -1 -9 -10 -3 -31 5 -19 5 -30 -1 -30 -6 0 -7 -5 -3
-12 4 -6 6 -37 5 -67 -4 -87 -2 -252 2 -289 4 -27 1 -32 -11 -27 -12 4 -13 3
-2 -10 14 -17 20 -155 7 -155 -5 0 -5 -5 -1 -12 9 -14 8 -173 0 -187 -4 -5 0
-12 6 -14 9 -4 9 -6 2 -6 -8 -1 -9 -12 -4 -36 4 -19 4 -35 0 -35 -5 0 -5 -13
0 -30 6 -20 5 -30 -2 -30 -6 0 -5 -7 3 -17 10 -11 10 -14 2 -9 -7 4 -13 3 -13
-3 0 -5 6 -12 13 -14 8 -4 8 -6 1 -6 -8 -1 -9 -12 -4 -37 7 -31 6 -35 -8 -29
-14 5 -15 4 -4 -6 6 -7 12 -25 12 -40 0 -15 -6 -30 -12 -32 -8 -3 -6 -6 4 -6
10 -1 15 -7 12 -14 -10 -27 -9 -307 1 -307 6 0 1 -7 -9 -15 -11 -8 -15 -15 -9
-15 8 0 11 -64 11 -213 -1 -118 3 -220 7 -227 5 -9 4 -11 -3 -6 -13 8 -12 -20
1 -41 4 -6 2 -15 -4 -19 -8 -5 -9 -3 -4 6 5 9 4 11 -4 6 -7 -5 -9 -12 -3 -19
14 -19 23 -49 12 -42 -14 9 -12 -19 3 -34 8 -9 8 -12 0 -7 -8 4 -10 -6 -8 -36
2 -24 -1 -48 -6 -54 -7 -8 -6 -15 2 -20 8 -5 9 -3 4 6 -5 9 -4 11 4 6 8 -5 9
-12 3 -19 -5 -7 -8 -20 -7 -29 2 -10 -2 -18 -8 -18 -7 0 -4 -5 6 -11 11 -7 15
-15 10 -22 -11 -15 -10 -57 1 -76 6 -10 5 -12 -2 -7 -8 5 -12 0 -12 -13 0 -12
6 -21 13 -21 6 0 4 -5 -6 -11 -12 -7 -15 -15 -9 -22 14 -20 14 -69 -1 -62 -6
4 -3 -1 7 -9 11 -9 15 -16 10 -16 -6 0 -9 -40 -8 -105 2 -70 -1 -103 -8 -99
-7 4 -7 0 -1 -12 9 -18 9 -43 0 -104 -5 -31 -34 -77 -79 -124 -16 -16 -28 -32
-28 -35 0 -9 1333 -7 1347 2 7 5 13 4 13 -2 0 -6 6 -8 13 -6 6 3 33 6 58 8 25
2 50 7 57 10 6 4 13 3 17 -3 4 -6 11 -8 16 -4 5 3 28 7 52 9 41 4 55 6 127 21
19 4 50 7 68 8 17 0 32 5 32 9 0 5 6 7 14 4 8 -3 17 -3 21 1 4 4 11 8 16 8 5
1 11 3 14 4 3 1 13 3 23 5 9 1 30 7 46 14 16 6 36 13 45 14 9 1 22 6 29 10 6
5 16 6 21 3 5 -3 12 2 15 11 6 15 8 15 16 3 6 -8 10 -10 10 -4 0 6 18 17 40
24 22 7 40 17 40 22 0 5 4 7 9 3 5 -3 13 0 16 6 4 5 14 8 22 5 8 -3 11 -1 8 4
-3 6 1 10 9 10 9 0 24 8 34 18 10 10 23 17 28 15 5 -2 20 6 32 17 12 12 22 18
22 15 0 -7 84 48 88 58 2 4 8 7 13 7 5 0 17 8 27 18 38 35 60 50 66 45 3 -4 6
1 6 11 0 9 5 14 10 11 6 -3 10 -1 10 5 0 7 7 9 16 6 8 -3 12 -2 9 3 -3 6 3 14
12 20 10 6 14 11 9 11 -6 0 5 11 24 25 19 14 30 25 24 25 -5 0 4 9 19 19 16
10 28 21 28 25 -1 10 37 45 43 39 3 -3 8 6 11 20 4 14 13 28 21 31 8 3 14 13
14 22 0 10 3 14 7 11 3 -4 23 18 43 48 20 30 40 52 45 48 4 -5 5 -3 1 4 -8 14
33 85 45 77 5 -3 6 2 3 11 -4 8 -1 22 6 30 7 8 9 15 4 15 -5 0 -3 4 5 9 8 5
16 18 17 28 2 9 7 19 13 21 5 2 7 10 4 19 -4 11 -2 14 5 9 8 -4 12 0 12 11 0
10 6 29 13 44 8 14 13 33 11 42 -1 9 1 17 6 17 4 0 11 15 15 33 4 17 8 34 9
37 1 3 4 10 7 15 4 6 5 18 4 28 -2 9 0 17 5 17 5 0 7 8 5 18 -1 9 1 22 6 27 4
6 8 22 8 35 1 14 1 35 1 48 0 12 4 22 10 22 5 0 8 17 7 38 -2 20 1 45 5 54 5
10 4 19 -2 23 -8 5 -7 11 1 21 9 11 8 14 -2 14 -11 0 -11 2 1 10 8 5 11 12 8
16 -4 4 -3 16 3 27 8 15 8 18 -1 12 -9 -6 -9 -2 -1 14 9 16 9 21 -1 21 -9 0
-9 3 2 10 13 9 13 10 0 10 -13 0 -13 1 0 10 13 9 13 10 0 10 -13 0 -13 1 0 10
13 9 13 10 0 10 -13 0 -13 1 0 10 8 5 11 10 5 10 -14 0 -16 80 -2 80 9 0 9 2
1 8 -14 9 -26 54 -12 45 7 -4 8 -1 3 8 -5 7 -9 37 -8 66 0 29 -4 53 -9 53 -5
0 -8 6 -5 13 2 6 -2 33 -10 60 -8 26 -11 52 -8 57 3 6 2 10 -4 10 -5 0 -8 9
-6 20 2 11 0 20 -4 20 -4 0 -14 22 -21 50 -7 28 -16 50 -20 50 -3 0 -6 10 -7
21 -1 12 -10 31 -20 42 -10 11 -13 18 -7 14 7 -4 5 8 -4 28 -9 19 -20 35 -24
35 -4 0 -8 9 -8 20 0 11 -3 20 -8 20 -4 0 -15 18 -25 40 -9 22 -22 40 -28 40
-5 0 -7 5 -4 10 3 6 1 10 -4 10 -6 0 -11 7 -11 15 0 8 -4 15 -10 15 -5 0 -10
7 -10 15 0 8 -4 15 -10 15 -5 0 -10 4 -10 9 0 5 -13 23 -30 41 -16 18 -27 36
-24 41 3 5 -2 9 -10 9 -9 0 -16 3 -16 8 0 11 -103 117 -111 115 -4 -2 -11 6
-14 17 -4 11 -13 20 -21 20 -8 0 -14 6 -14 14 0 8 -8 17 -17 20 -10 3 -30 16
-45 28 -14 13 -35 31 -46 40 -11 9 -23 14 -26 11 -3 -4 -6 -1 -6 5 0 7 -5 12
-11 12 -6 0 -26 12 -45 26 -19 15 -34 23 -34 20 0 -4 -9 2 -21 13 -12 11 -28
17 -37 14 -9 -4 -13 -2 -9 4 3 5 -9 16 -28 23 -19 8 -35 18 -35 22 0 5 -4 7
-9 3 -5 -3 -12 -1 -16 5 -4 6 -11 8 -16 5 -5 -4 -9 -1 -9 5 0 6 -4 9 -9 5 -5
-3 -12 -1 -16 5 -4 6 -10 8 -15 5 -5 -3 -11 -1 -15 5 -3 5 -15 10 -26 10 -10
0 -19 5 -19 12 0 6 -3 8 -6 5 -4 -3 -15 -2 -26 4 -11 6 -32 13 -46 15 -15 3
-31 9 -37 15 -5 5 -19 9 -31 9 -13 0 -26 5 -30 11 -4 8 -9 7 -15 -2 -6 -10 -9
-11 -9 -1 0 6 -11 12 -25 12 -14 0 -25 4 -25 9 0 5 -8 8 -17 7 -9 -2 -36 3
-59 10 -23 7 -45 10 -47 7 -3 -3 -12 -1 -19 3 -7 5 -33 10 -58 12 -65 3 -80 6
-80 12 0 3 -19 5 -43 5 -23 -1 -47 3 -54 8 -6 4 -14 3 -18 -3 -5 -7 -11 -8
-19 -1 -6 5 -72 11 -146 12 -84 1 -138 6 -142 13 -5 7 -8 6 -8 -3 0 -11 -3
-11 -15 -1 -12 10 -15 10 -15 -1 0 -12 -2 -12 -9 -1 -4 8 -12 14 -16 14 -4 0
-12 -6 -16 -14 -5 -7 -9 -8 -9 -2 0 12 -38 13 -57 1 -6 -4 -14 -3 -17 1 -6 10
-36 9 -54 -2 -6 -4 -12 -3 -12 1 0 5 -11 9 -25 9 -14 0 -25 -4 -25 -9 0 -5 -7
-4 -15 3 -12 10 -15 10 -15 -1 0 -10 -3 -10 -12 -1 -8 8 -15 9 -25 1 -10 -9
-13 -8 -13 1 0 10 -3 10 -14 1 -10 -9 -16 -9 -21 -1 -5 8 -11 8 -21 -1 -11 -9
-14 -8 -14 2 0 11 -2 11 -9 0 -8 -12 -12 -12 -24 -2 -11 8 -17 9 -22 1 -5 -8
-11 -8 -19 -1 -9 7 -16 7 -25 -2 -9 -9 -14 -9 -20 2 -7 11 -9 11 -13 0 -4 -12
-8 -11 -23 1 -10 8 -16 10 -12 4 4 -7 -7 -11 -33 -11 -22 0 -37 4 -34 9 3 4 3
8 0 8 -3 0 -10 -8 -15 -17z m403 -395 c-6 -10 -5 -10 7 -2 18 15 199 15 218 0
12 -9 13 -8 6 3 -6 11 -5 12 6 5 8 -5 26 -9 40 -10 14 0 39 -5 55 -9 16 -5 31
-9 34 -9 3 -1 11 -5 18 -9 7 -5 12 -3 12 4 0 7 8 5 20 -6 11 -10 20 -15 20
-12 0 3 24 -5 54 -18 30 -13 57 -21 60 -18 3 4 6 1 6 -5 0 -6 10 -14 23 -18
12 -4 51 -24 86 -45 34 -22 67 -39 71 -39 4 0 11 -7 14 -16 4 -9 13 -14 22
-10 8 3 12 2 9 -4 -3 -5 7 -17 22 -27 15 -10 38 -28 49 -40 12 -13 27 -23 33
-23 7 0 9 -4 6 -10 -3 -5 -1 -10 5 -10 6 0 18 -7 26 -15 9 -8 13 -15 9 -15 -4
0 8 -12 27 -27 18 -15 37 -33 41 -40 4 -7 19 -24 33 -38 13 -13 24 -27 24 -30
0 -3 9 -15 20 -27 11 -12 20 -28 20 -35 0 -7 4 -13 8 -13 5 0 15 -12 23 -27 8
-16 20 -34 27 -41 7 -8 10 -18 7 -23 -4 -5 -1 -9 5 -9 7 0 9 -7 6 -16 -3 -8
-2 -13 3 -9 5 3 15 -11 21 -30 6 -19 15 -35 20 -35 4 0 6 -8 3 -19 -3 -10 0
-22 6 -25 6 -4 11 -16 11 -27 0 -10 4 -19 8 -19 5 0 9 -6 10 -12 1 -18 11 -66
21 -105 5 -18 8 -46 7 -62 -1 -17 2 -32 7 -34 10 -3 17 -295 8 -312 -6 -11
-12 -48 -14 -90 -1 -16 -6 -33 -12 -37 -6 -5 -5 -8 3 -8 10 0 10 -5 2 -21 -7
-11 -9 -23 -6 -26 3 -3 0 -15 -6 -27 -7 -11 -12 -33 -13 -48 0 -15 -4 -30 -8
-34 -4 -4 -7 -16 -7 -26 0 -10 -5 -18 -11 -18 -5 0 -8 -4 -5 -9 3 -5 -1 -28
-10 -52 -8 -24 -17 -53 -20 -64 -2 -11 -8 -21 -13 -23 -6 -2 -7 -10 -4 -18 3
-8 1 -14 -4 -14 -5 0 -15 -17 -22 -37 -8 -20 -26 -58 -42 -85 -16 -26 -25 -48
-22 -48 4 0 -2 -7 -13 -15 -10 -8 -15 -15 -10 -15 5 0 0 -8 -11 -18 -11 -9
-18 -23 -15 -31 2 -8 1 -11 -4 -8 -5 2 -15 -1 -22 -9 -7 -8 -10 -14 -7 -14 3
0 -20 -26 -52 -57 -31 -32 -56 -61 -55 -65 1 -5 -3 -8 -9 -8 -6 0 -28 -14 -49
-30 -21 -17 -43 -30 -49 -30 -6 0 -11 -5 -11 -11 0 -5 -4 -8 -9 -5 -5 3 -12
-1 -15 -10 -3 -8 -10 -12 -16 -9 -5 3 -10 2 -10 -3 0 -11 -38 -25 -59 -22 -7
1 -10 -3 -6 -9 5 -9 -18 -16 -28 -8 -2 1 -11 -4 -20 -12 -10 -7 -17 -11 -17
-7 0 4 -13 0 -30 -9 -16 -9 -30 -13 -30 -9 0 4 -6 1 -13 -5 -8 -6 -17 -8 -20
-4 -4 3 -7 1 -7 -6 0 -7 -6 -11 -14 -8 -8 3 -17 3 -20 -1 -7 -6 -33 -11 -73
-14 -13 -1 -23 -5 -23 -9 0 -3 -14 -5 -31 -3 -22 3 -28 0 -23 -9 6 -9 5 -9 -8
0 -8 7 -18 10 -21 6 -4 -3 -67 -7 -140 -8 -73 -1 -138 -4 -144 -8 -6 -4 -16 0
-23 8 -7 8 -9 15 -6 15 4 0 4 5 0 12 -11 17 -11 237 0 231 5 -4 6 0 1 7 -11
18 -13 52 -3 73 5 9 5 17 1 17 -4 0 -8 487 -8 1083 0 1071 0 1082 20 1094 26
16 28 16 19 1z"/>
</g>
</svg>
