<?xml version="1.0" standalone="no"?>
<!DOCTYPE svg PUBLIC "-//W3C//DTD SVG 20010904//EN"
 "http://www.w3.org/TR/2001/REC-SVG-20010904/DTD/svg10.dtd">
<svg version="1.0" xmlns="http://www.w3.org/2000/svg"
 width="1295.000000pt" height="267.000000pt" viewBox="0 0 1295.000000 267.000000"
 preserveAspectRatio="xMidYMid meet">

<g transform="translate(0.000000,267.000000) scale(0.100000,-0.100000)"
fill="rgb(59, 44, 29)" stroke="none">
<path d="M60 2664 c-46 -7 -60 -27 -60 -89 0 -66 10 -74 132 -110 53 -15 101
-31 106 -34 9 -5 17 -1097 14 -1816 0 -104 0 -236 2 -292 l2 -101 -65 -17
c-36 -9 -90 -23 -119 -31 l-53 -15 3 -66 c3 -63 4 -67 30 -74 16 -4 481 -7
1035 -6 l1008 2 41 22 c92 49 336 360 457 583 62 114 168 381 190 480 28 128
30 366 4 490 -73 343 -240 630 -525 900 -69 65 -137 121 -167 135 -81 40 -189
48 -550 41 -176 -3 -329 -6 -340 -6 -11 -1 -58 -1 -105 -1 -47 0 -121 -1 -165
-3 -44 -1 -88 2 -99 7 -12 6 -59 5 -130 -3 -61 -6 -120 -11 -131 -11 -11 1
-65 3 -120 6 -196 10 -361 13 -395 9z m1926 -65 c86 -15 126 -43 254 -176 180
-185 325 -390 402 -566 39 -91 78 -226 78 -272 0 -18 4 -25 13 -22 9 3 13 -25
15 -116 1 -66 7 -126 12 -132 12 -15 -1 -146 -24 -247 -34 -149 -126 -366
-224 -530 -107 -181 -329 -448 -397 -479 -38 -17 -88 -19 -860 -18 -451 0
-811 4 -800 8 20 9 -30 17 -135 24 -34 2 -41 5 -26 11 26 13 93 76 80 76 -6 0
-22 -8 -35 -18 -49 -38 -117 -72 -142 -72 -41 0 -33 14 26 44 64 33 119 72
130 93 8 12 6 13 -12 4 -35 -19 -27 24 9 45 16 10 32 24 34 31 6 15 -10 18
-19 3 -3 -5 -15 -15 -26 -20 -16 -9 -19 -7 -19 15 0 14 6 25 13 25 14 0 51 39
44 47 -3 2 -17 -3 -31 -12 -25 -17 -26 -16 -26 2 0 11 14 29 30 41 36 27 41
51 5 28 -31 -21 -35 -20 -35 3 0 11 13 28 30 37 16 10 32 24 34 31 6 15 -10
18 -19 3 -3 -5 -15 -15 -26 -21 -19 -9 -20 -8 -17 18 2 15 8 28 14 28 14 0 48
34 41 41 -3 3 -17 -2 -31 -11 -25 -16 -26 -16 -26 1 0 9 15 30 33 45 17 15 29
30 25 35 -5 4 -16 0 -26 -9 -24 -22 -32 -21 -32 1 0 9 16 30 36 45 42 35 38
48 -5 17 l-31 -21 0 26 c0 15 7 28 18 32 23 9 42 29 42 44 0 8 -5 8 -17 -3
-35 -30 -43 -30 -43 -4 0 15 6 26 13 26 17 0 53 38 44 46 -3 3 -17 -2 -31 -11
-25 -16 -26 -16 -26 0 0 10 17 33 38 51 40 36 31 47 -12 13 l-26 -20 0 26 c0
15 7 28 18 32 23 9 42 29 42 44 0 8 -5 8 -17 -3 -35 -30 -43 -30 -43 -4 0 15
6 26 13 26 17 0 53 38 44 46 -3 3 -17 -2 -31 -11 -25 -16 -26 -16 -26 1 0 11
16 32 36 47 39 32 39 49 0 23 -32 -21 -36 -20 -36 3 0 11 13 28 30 37 16 10
32 24 34 31 6 15 -10 18 -19 3 -3 -5 -15 -15 -26 -20 -16 -9 -19 -7 -19 15 0
14 6 25 13 25 17 0 53 38 44 46 -3 3 -16 -2 -30 -11 -18 -12 -27 -13 -32 -4
-5 7 10 27 36 50 48 42 45 51 -7 18 -34 -21 -34 -21 -34 0 0 11 14 29 33 42
17 13 35 28 39 33 13 20 -1 18 -28 -3 -15 -11 -31 -21 -35 -21 -17 0 -9 41 9
47 22 8 56 43 49 50 -3 3 -16 -2 -29 -11 -29 -21 -38 -20 -38 3 0 11 8 22 19
26 23 7 56 43 48 51 -3 4 -19 -4 -34 -16 -26 -20 -28 -21 -32 -4 -2 10 7 26
20 37 52 40 61 49 56 54 -3 3 -19 -4 -35 -16 -17 -12 -33 -21 -36 -21 -12 0
-5 38 9 50 8 7 15 9 15 4 0 -4 9 2 20 14 29 31 25 47 -6 23 -33 -26 -44 -26
-44 -1 0 12 9 24 23 29 26 10 53 39 44 47 -3 4 -20 -4 -36 -16 -29 -20 -31
-20 -31 -2 0 10 18 33 41 51 45 37 45 57 -1 23 -16 -12 -32 -22 -35 -22 -15 0
2 44 20 54 28 16 45 33 45 46 0 6 -12 2 -26 -9 -33 -26 -44 -26 -44 -1 0 12 9
24 23 29 26 10 53 39 44 47 -3 4 -20 -4 -36 -16 -29 -20 -31 -20 -31 -2 0 10
18 33 41 51 48 40 45 52 -6 21 l-37 -23 4 23 c1 13 12 28 23 34 28 16 45 33
45 46 0 6 -12 2 -26 -9 -33 -26 -44 -26 -44 -1 0 12 9 24 23 29 26 10 53 39
44 47 -3 4 -20 -4 -36 -16 l-31 -21 0 25 c0 15 7 27 18 30 20 7 71 56 57 56
-4 0 -23 -9 -41 -21 -34 -21 -34 -21 -34 0 0 11 14 29 32 42 18 13 36 28 40
33 12 18 -1 20 -19 4 -31 -26 -53 -30 -53 -8 0 11 4 20 9 20 15 0 65 49 57 57
-3 4 -12 1 -18 -5 -17 -17 -28 -15 -28 4 0 9 11 25 25 36 33 25 33 45 0 24
-24 -16 -25 -16 -25 7 0 15 9 29 24 37 25 13 43 40 27 40 -5 0 -14 -7 -21 -15
-7 -8 -16 -15 -21 -15 -18 0 -8 32 18 56 27 25 26 47 -2 24 -12 -10 -23 -8
-57 8 -24 12 -78 31 -120 43 -43 12 -78 25 -78 29 0 4 179 11 397 15 219 4
511 11 648 15 410 11 776 11 841 -1z m-1762 -90 c39 -11 75 -25 80 -29 7 -7
-124 30 -159 44 -28 12 16 4 79 -15z m93 -101 c-3 -7 -5 -2 -5 12 0 14 2 19 5
13 2 -7 2 -19 0 -25z m0 -70 c-3 -7 -5 -2 -5 12 0 14 2 19 5 13 2 -7 2 -19 0
-25z m0 -65 c-3 -10 -5 -4 -5 12 0 17 2 24 5 18 2 -7 2 -21 0 -30z m-87 -2127
c0 -2 -23 -18 -50 -35 -56 -35 -104 -41 -98 -14 2 10 24 22 63 33 64 19 85 23
85 16z"/>
<path d="M1737 2528 c-51 -33 -55 -43 -14 -33 25 7 74 51 66 59 -3 3 -26 -9
-52 -26z"/>
<path d="M1778 2486 c-45 -29 -59 -46 -40 -46 5 0 29 13 53 29 24 16 47 27 51
25 4 -3 5 2 2 10 -8 20 -10 20 -66 -18z"/>
<path d="M457 2489 c-15 -22 -16 -105 -11 -804 5 -856 10 -1164 18 -1173 3 -3
1 -11 -5 -18 -7 -8 -7 -14 1 -19 8 -5 8 -11 -1 -21 -9 -11 -9 -17 0 -28 9 -11
9 -19 0 -33 -9 -15 -9 -39 0 -104 7 -47 16 -90 19 -96 19 -29 113 -33 605 -31
273 2 497 2 497 2 0 -1 -31 -20 -70 -43 -39 -23 -70 -44 -70 -46 0 -14 100 35
163 78 17 12 38 17 64 15 33 -3 35 -5 18 -14 -49 -23 -97 -58 -87 -62 6 -2 42
15 80 37 37 23 74 41 81 41 7 0 41 21 74 46 34 25 77 54 97 64 19 10 44 28 55
41 17 19 10 17 -40 -11 l-60 -34 32 40 c17 22 55 52 85 67 55 27 131 86 112
87 -5 0 -38 -18 -72 -40 -33 -22 -64 -40 -67 -40 -17 0 68 88 102 105 59 31
113 68 113 77 0 14 -11 9 -67 -28 -30 -20 -56 -34 -59 -31 -13 13 30 62 73 83
50 25 126 83 108 84 -6 0 -37 -18 -70 -39 -33 -22 -62 -38 -64 -36 -10 11 53
75 91 94 45 21 103 69 95 78 -3 2 -29 -12 -57 -31 -63 -43 -72 -45 -59 -8 6
18 24 34 52 46 23 11 52 29 64 40 30 25 40 14 25 -27 -7 -19 -12 -41 -12 -49
0 -9 -9 -38 -20 -64 -11 -26 -19 -48 -17 -50 11 -11 74 114 107 213 66 199 85
378 66 628 -10 121 -35 228 -83 355 -92 241 -208 411 -384 566 -106 93 -96 88
-131 62 -36 -25 -20 -38 16 -14 19 12 27 12 40 3 15 -11 13 -14 -14 -30 -16
-10 -30 -22 -30 -28 0 -13 14 -11 28 3 7 7 12 8 12 3 0 -5 6 0 14 10 12 17 16
17 30 6 15 -13 14 -17 -16 -43 -31 -27 -31 -28 -8 -22 14 3 33 13 43 22 14 12
20 13 30 3 9 -10 5 -19 -23 -42 -35 -30 -22 -41 17 -14 18 13 22 13 33 0 11
-13 10 -18 -6 -30 -10 -8 -22 -15 -26 -15 -5 0 -8 -5 -8 -11 0 -13 42 -1 52
15 5 8 12 6 24 -5 15 -15 14 -18 -14 -35 -35 -20 -33 -40 1 -21 12 6 25 16 28
20 3 4 12 1 19 -8 12 -14 10 -20 -16 -40 -32 -27 -13 -35 23 -10 18 12 23 13
32 1 9 -11 5 -19 -20 -37 -38 -26 -21 -39 17 -14 19 12 29 14 37 6 8 -8 2 -19
-23 -42 -32 -27 -33 -29 -10 -23 14 3 32 13 41 21 14 12 17 12 23 -4 5 -12 1
-22 -11 -30 -10 -7 -27 -19 -38 -28 -19 -16 -19 -16 10 -10 17 4 37 13 46 21
15 13 17 13 23 -1 8 -23 10 -21 -29 -45 -19 -12 -33 -26 -30 -31 6 -9 35 4 66
29 14 11 18 10 23 -5 5 -12 1 -22 -11 -30 -44 -30 -58 -42 -51 -48 7 -8 48 14
64 34 10 12 13 11 22 -6 10 -18 7 -24 -29 -48 -50 -33 -44 -46 7 -16 29 18 39
19 45 9 9 -13 -3 -27 -52 -59 -13 -9 -21 -20 -18 -23 7 -7 66 21 75 36 4 6 10
5 15 -3 14 -23 11 -28 -37 -58 -26 -15 -42 -31 -37 -34 5 -3 27 5 48 20 29 20
39 23 46 12 10 -16 -3 -32 -48 -60 -19 -12 -32 -24 -29 -27 7 -6 52 15 77 35
14 12 17 11 22 -7 3 -11 1 -18 -4 -14 -5 3 -9 0 -9 -5 0 -6 -19 -23 -41 -38
-49 -32 -37 -43 15 -14 l36 21 0 -23 c0 -15 -12 -29 -41 -45 -22 -13 -38 -26
-36 -29 9 -8 77 20 77 32 0 11 20 -15 20 -27 0 -4 -20 -19 -45 -34 -25 -14
-43 -30 -40 -34 6 -9 65 18 77 35 9 12 22 -21 13 -35 -3 -6 -24 -19 -46 -30
-33 -18 -52 -40 -33 -40 10 0 69 35 72 43 7 15 22 6 22 -13 0 -13 -17 -31 -51
-51 -27 -17 -48 -34 -45 -37 8 -7 70 20 79 35 5 7 12 11 18 8 21 -14 6 -37
-48 -71 -32 -21 -52 -39 -46 -41 7 -3 33 9 58 26 45 30 45 30 45 8 0 -17 -15
-32 -55 -58 -48 -30 -67 -49 -49 -49 9 0 67 33 88 50 17 14 18 13 15 -10 -3
-17 -22 -36 -64 -64 -33 -22 -54 -41 -47 -44 6 -2 32 10 57 27 54 36 55 37 55
12 0 -17 -24 -36 -103 -85 -16 -10 -26 -20 -23 -23 7 -8 74 25 104 52 l24 20
-4 -25 c-3 -22 -44 -57 -124 -106 -11 -7 -17 -14 -13 -18 7 -7 84 31 100 50
17 21 27 17 22 -8 -3 -15 -29 -38 -75 -68 -39 -24 -67 -45 -61 -47 14 -5 78
23 93 41 19 23 28 19 22 -9 -2 -14 -7 -25 -11 -25 -3 0 -33 -18 -66 -40 -79
-52 -80 -52 -58 10 11 30 15 46 24 115 26 192 30 384 9 485 -33 163 -46 214
-72 290 -49 140 -185 390 -235 431 -8 8 5 -16 30 -51 75 -109 143 -248 191
-392 25 -75 46 -145 46 -155 -1 -16 -2 -16 -17 2 l-16 20 8 -20 c4 -11 10
-117 12 -235 5 -188 3 -231 -16 -338 -37 -217 -108 -392 -240 -594 -38 -59
-100 -138 -138 -177 l-68 -69 -405 -5 c-371 -5 -396 -4 -295 8 106 13 99 13
-207 11 l-318 -2 0 55 c-1 31 -5 171 -10 311 -5 140 -10 562 -10 938 0 375 -4
681 -8 678 -4 -2 -5 34 -3 81 2 55 -1 93 -9 108 -26 48 -14 52 162 60 200 9
185 24 -33 32 l-147 6 -15 -24z m1892 -1606 c-7 -21 -14 -32 -17 -25 -3 9 -13
6 -35 -11 -18 -12 -48 -32 -68 -44 l-37 -21 16 39 c8 22 17 37 20 34 6 -6 58
23 96 53 16 13 31 21 33 18 3 -3 -1 -22 -8 -43z"/>
<path d="M1920 2286 c0 -2 8 -10 18 -17 15 -13 16 -12 3 4 -13 16 -21 21 -21
13z"/>
<path d="M2191 1694 c0 -11 3 -14 6 -6 3 7 2 16 -1 19 -3 4 -6 -2 -5 -13z"/>
<path d="M723 53 c9 -2 25 -2 35 0 9 3 1 5 -18 5 -19 0 -27 -2 -17 -5z"/>
<path d="M6535 1963 c-138 -334 -497 -1159 -520 -1193 -16 -25 -44 -54 -62
-65 -20 -13 -32 -28 -33 -42 0 -23 1 -23 155 -23 145 0 155 1 155 19 0 12 -14
24 -45 35 -49 19 -60 40 -50 93 7 36 101 269 118 291 14 18 500 18 514 0 16
-21 101 -231 114 -281 10 -40 9 -51 -5 -72 -10 -14 -28 -30 -42 -35 -14 -6
-24 -17 -24 -30 0 -19 6 -20 205 -20 197 0 205 1 205 20 0 12 -13 25 -36 36
-70 33 -67 27 -415 861 -197 473 -202 483 -234 406z m93 -538 l109 -260 -220
-3 c-121 -1 -222 0 -225 2 -2 3 46 122 108 266 62 143 114 259 116 257 2 -1
52 -120 112 -262z"/>
<path d="M3060 1951 c0 -12 14 -26 37 -38 21 -10 43 -29 50 -43 10 -19 12
-149 10 -572 -2 -536 -2 -547 -23 -575 -11 -15 -35 -32 -52 -38 -21 -6 -32
-16 -32 -27 0 -17 12 -18 150 -18 l150 0 0 665 0 665 -145 0 c-136 0 -145 -1
-145 -19z"/>
<path d="M3680 1951 c0 -12 14 -26 38 -38 25 -14 41 -31 49 -54 17 -48 17
-1059 0 -1109 -8 -24 -24 -41 -49 -55 -22 -11 -38 -28 -38 -37 0 -17 29 -18
470 -18 l470 0 0 102 0 102 -37 -36 c-21 -20 -53 -43 -70 -52 -70 -35 -444
-48 -501 -17 -13 7 -27 23 -32 37 -6 15 -10 264 -10 610 l0 584 -145 0 c-136
0 -145 -1 -145 -19z"/>
<path d="M4817 1963 c-14 -14 -6 -32 20 -45 14 -7 36 -26 47 -41 21 -28 21
-36 21 -571 0 -509 -1 -544 -18 -570 -10 -15 -32 -35 -48 -44 -16 -10 -29 -25
-29 -34 0 -17 29 -18 470 -18 l470 0 0 101 0 101 -41 -37 c-23 -20 -57 -43
-75 -51 -51 -21 -233 -37 -368 -31 -115 4 -121 5 -143 31 l-23 27 0 595 0 594
-138 0 c-76 0 -142 -3 -145 -7z"/>
<path d="M7380 1939 c0 -24 11 -41 55 -83 l56 -52 -3 -526 c-3 -515 -3 -527
-24 -555 -11 -15 -35 -32 -52 -38 -21 -6 -32 -16 -32 -27 0 -16 11 -18 100
-18 l100 0 2 521 3 520 434 -530 c289 -354 440 -531 453 -531 17 0 18 23 18
583 1 320 5 601 9 625 10 51 42 88 82 97 20 5 29 13 29 26 0 17 -8 19 -100 19
l-100 0 0 -496 c0 -277 -4 -494 -9 -492 -5 2 -188 224 -408 493 l-399 490
-107 3 -107 3 0 -32z"/>
<path d="M8790 1865 l0 -105 28 0 c22 0 34 9 53 38 14 21 43 47 69 60 39 19
59 22 177 22 l133 0 0 -524 c0 -306 -4 -546 -10 -577 -11 -59 -35 -86 -82 -96
-19 -4 -28 -12 -28 -24 0 -18 12 -19 221 -19 203 0 220 1 217 17 -2 10 -17 20
-37 24 -18 4 -45 19 -60 33 l-26 26 -3 570 -2 570 132 0 c107 0 141 -4 173
-19 39 -17 95 -72 95 -92 0 -5 11 -9 25 -9 l25 0 0 105 0 105 -550 0 -550 0 0
-105z"/>
<path d="M10000 1950 c0 -13 7 -20 19 -20 34 0 78 -46 90 -94 7 -29 11 -177
11 -423 0 -376 6 -472 36 -548 39 -99 132 -184 249 -226 52 -19 82 -22 220
-23 132 -1 170 2 215 18 159 54 243 139 287 293 13 48 17 131 22 483 6 400 7
427 26 458 11 18 36 40 57 50 22 10 38 24 38 35 0 15 -12 17 -104 17 l-105 0
-3 -497 c-4 -567 -4 -563 -84 -652 -109 -121 -340 -166 -489 -95 -46 22 -101
76 -127 128 -43 84 -48 144 -48 644 l0 472 -155 0 c-148 0 -155 -1 -155 -20z"/>
<path d="M11380 1945 c0 -15 6 -25 15 -25 8 0 29 -12 46 -28 44 -39 48 -94 48
-592 0 -498 -4 -553 -48 -592 -17 -16 -38 -28 -46 -28 -8 0 -15 -9 -15 -20 0
-19 7 -20 95 -20 l95 0 2 556 3 557 255 -557 c184 -401 259 -556 271 -556 12
0 73 124 219 443 112 243 227 494 257 557 l53 115 -2 -502 c-3 -492 -3 -502
-24 -530 -12 -16 -36 -32 -57 -37 -26 -7 -37 -15 -37 -28 0 -17 14 -18 215
-18 208 0 215 1 215 20 0 14 -7 20 -21 20 -34 0 -78 32 -89 63 -6 19 -10 222
-10 559 0 580 0 582 59 612 16 9 37 16 46 16 8 0 15 9 15 20 0 20 -5 20 -155
18 l-156 -3 -234 -514 c-129 -283 -237 -516 -238 -518 -2 -1 -84 172 -182 385
-98 213 -207 447 -241 520 l-63 132 -145 0 -146 0 0 -25z"/>
</g>
</svg>
